Coordinates
version=1
nRows=13
nColumns=36
inDegrees=yes

Units are S.I. units (second, meters, Newtons, ...)
If the header above contains a line with 'inDegrees', this indicates whether rotational values are in degrees (yes) or radians (no).

endheader
time	pelvis_tilt	pelvis_list	pelvis_rotation	pelvis_tx	pelvis_ty	pelvis_tz	hip_flexion_r	hip_adduction_r	hip_rotation_r	knee_angle_r	knee_angle_r_beta	ankle_angle_r	subtalar_angle_r	mtp_angle_r	hip_flexion_l	hip_adduction_l	hip_rotation_l	knee_angle_l	knee_angle_l_beta	ankle_angle_l	subtalar_angle_l	mtp_angle_l	lumbar_extension	lumbar_bending	lumbar_rotation	arm_flex_r	arm_add_r	arm_rot_r	elbow_flex_r	pro_sup_r	arm_flex_l	arm_add_l	arm_rot_l	elbow_flex_l	pro_sup_l
      0.00000000	      2.47747980	     -1.87890239	      1.38934280	     -1.08047902	      1.39309775	     -0.05397898	     -2.99607428	      3.45556613	      1.56972520	      9.31102654	      0.16250807	      6.45493852	    -10.77637693	     -5.84730791	     -4.04686346	     -2.49873876	      1.19904200	      6.29480783	      0.10986512	     11.32761664	     -1.28048719	     -5.84730791	    -11.24022806	      2.17099100	     -0.50181324	      7.53328806	     -3.36816041	      8.96470875	     27.98480809	     83.05517175	      7.61204306	     -0.81804138	     11.36828521	     26.39270994	     75.60312320
      0.00416670	     -0.24424704	     -1.28241074	      1.54517941	     -1.07810303	      1.38787765	     -0.05470635	      0.37592937	      2.77908540	      1.58075700	     10.22271515	      0.17842004	      9.41555445	     -8.20460219	     -5.94892353	     -0.50483933	     -1.21766089	      2.77206808	      7.03992366	      0.12286985	     10.68161283	     -0.94447389	     -5.94892353	     -7.38407225	      1.68278301	     -1.24709067	      6.61507700	     -2.85269908	      6.35137832	     27.62177051	     82.95718577	      6.95582649	     -0.25267948	      7.96108395	     25.71211313	     75.42751323
      0.00833330	     -1.18638279	     -0.51063473	      1.46404392	     -1.07659896	      1.38599621	     -0.05425968	      0.84736286	      1.90273317	      0.78397190	      9.27426271	      0.16186642	      9.83730050	     -6.88212475	     -6.12734994	      0.26783793	     -0.38709229	      2.16972646	      6.79832642	      0.11865318	     10.62611152	      0.26181346	     -6.12734994	     -5.91532390	      0.58587265	     -1.31370325	      6.41690123	     -2.41187235	      6.34403274	     27.32857220	     81.70484176	      6.83964281	     -0.79682232	      9.17367810	     25.53773209	     74.79129980
      0.01250000	     -0.81815970	     -0.13500035	      1.50130114	     -1.07565796	      1.38819957	     -0.05418555	      0.09470468	      1.46832056	      0.09446830	      8.69377448	      0.15173499	     10.41911672	     -5.41338431	     -6.40045099	     -0.73354225	      0.05173105	      2.36124386	      5.98207780	      0.10440695	     10.30584742	      0.26856461	     -6.40045099	     -6.25420940	      0.06365509	     -0.95458016	      6.26723022	     -2.46225201	      7.40682719	     27.38001121	     81.07357944	      7.22855957	     -1.65969248	     13.27369070	     25.50489372	     75.23691850
      0.01666670	     -0.60072635	     -0.01880323	      1.48537288	     -1.07548969	      1.38828469	     -0.05329842	     -0.44187380	      1.41826837	     -0.07301341	      8.14977964	      0.14224049	     10.50672450	     -5.01207460	     -6.45339587	     -1.33841193	      0.21140089	      2.48739918	      5.41692312	      0.09454314	     10.19713272	      0.27719365	     -6.45339587	     -6.52843918	     -0.10390401	     -0.82659297	      6.32669234	     -2.32007810	      7.88537194	     27.27418944	     80.41242161	      7.50786324	     -1.81230190	     14.34408609	     25.31767726	     74.91935971
      0.02083330	     -0.35303700	      0.07625320	      1.60446233	     -1.07560297	      1.38928344	     -0.05185295	     -0.86476782	      1.41537639	     -0.20864329	      7.89629784	      0.13781640	     10.67407057	     -4.50155872	     -6.73005819	     -1.75126074	      0.29769186	      2.81084001	      5.05217262	      0.08817705	     10.16931723	      0.29694297	     -6.73005819	     -6.85977552	     -0.27638942	     -0.72944221	      6.42147822	     -2.36806207	      9.22588450	     27.15731964	     77.37928124	      8.05466008	     -2.08060267	     16.26395421	     25.16855874	     72.95852575
      0.02500000	     -0.29083174	      0.06310689	      1.76944073	     -1.07479512	      1.38788532	     -0.05222720	     -1.14414753	      1.47532532	     -0.41186442	      7.53891750	      0.13157893	     10.67943756	     -4.02377283	     -6.83014351	     -1.88113944	      0.25787085	      2.92831071	      4.84278398	      0.08452253	     10.10344245	      0.28351646	     -6.83014351	     -6.85614778	     -0.30963529	     -0.65740177	      6.42194566	     -2.74996922	     11.67411193	     27.16980550	     78.59300531	      8.54470616	     -2.51538340	     19.56894325	     24.91728741	     74.78184367
      0.02916670	     -0.33248465	      0.08638021	      1.90361156	     -1.07503157	      1.38657584	     -0.05160140	     -1.19826579	      1.46941055	     -0.38518615	      7.27779356	      0.12702146	     10.65560385	     -4.10336225	     -7.05374823	     -1.79242931	      0.23220769	      3.08222698	      4.85503222	      0.08473630	     10.00710178	     -0.04160643	     -7.05374823	     -6.80424600	     -0.37805939	     -0.70121091	      6.36181236	     -2.59005652	     10.98934334	     27.12683578	     82.26273079	      8.71884801	     -2.43864613	     18.85380911	     24.75044079	     79.43283038
      0.03333330	     -0.29796126	      0.10279543	      2.04139057	     -1.07365308	      1.39029318	     -0.05161733	     -1.44801923	      1.47425710	     -0.35224834	      6.88179346	      0.12010995	     10.45826565	     -4.18189813	     -7.15449666	     -1.85378481	      0.19054380	      3.31341439	      4.80307817	      0.08382953	      9.77153739	     -0.27464431	     -7.15449666	     -6.75668249	     -0.46017271	     -0.80312648	      6.35451154	     -2.64020040	     12.31055414	     26.93842863	     80.71670161	      8.83974490	     -2.56735776	     19.80575888	     24.63883714	     78.16544431
      0.03750000	     -0.34912931	      0.07350657	      2.18049815	     -1.07249739	      1.38877329	     -0.05090835	     -1.63553826	      1.52616306	     -0.43230687	      6.46579789	      0.11284946	     10.30668799	     -4.11968431	     -7.21814331	     -1.80364466	      0.10472866	      3.37671438	      4.81349797	      0.08401139	      9.67374811	     -0.25937864	     -7.21814331	     -6.57156737	     -0.45779225	     -0.95166744	      6.33458815	     -2.69364460	     13.22547929	     26.72073750	     80.59123437	      8.85661867	     -2.66570733	     20.56176184	     24.33538694	     78.37117117
      0.04166670	     -0.34245286	      0.04523147	      2.29407970	     -1.07320648	      1.39039504	     -0.05082287	     -1.81339677	      1.58665721	     -0.43244597	      6.12591119	      0.10691732	     10.00536459	     -4.38739670	     -7.25021084	     -1.79859587	      0.02555265	      3.51111554	      4.85242173	      0.08469074	      9.51908774	     -0.46959195	     -7.25021084	     -6.57577164	     -0.45774915	     -1.01184505	      6.23695248	     -2.62352343	     13.19777049	     26.65640339	     79.39770879	      8.86333405	     -2.66292451	     20.47562932	     24.15760031	     77.35142942
      0.04583330	     -0.26405701	      0.01865510	      2.36749313	     -1.07183072	      1.38860204	     -0.05106903	     -2.10291750	      1.65255639	     -0.43087082	      5.82679340	      0.10169673	      9.85764724	     -4.29993445	     -7.28514122	     -1.93175265	     -0.02581370	      3.56502192	      4.77579958	      0.08335343	      9.49163584	     -0.37847965	     -7.28514122	     -6.62155355	     -0.46237795	     -1.12810678	      6.20958517	     -2.60116089	     13.46683394	     26.47141996	     78.44692968	      8.88298716	     -2.71318438	     20.69032189	     23.91726271	     76.63086395
      0.05000000	     -0.39692579	     -0.01260887	      2.40957348	     -1.07343751	      1.38749295	     -0.05193818	     -2.00629275	      1.69103798	     -0.40012811	      5.72257225	      0.09987773	      9.80302314	     -4.49023646	     -7.40331844	     -1.78609196	     -0.05651954	      3.56546851	      4.78884271	      0.08358107	      9.54390948	     -0.39878558	     -7.40331844	     -6.47489884	     -0.39453223	     -1.12076350	      6.06099582	     -2.60171756	     12.19505633	     26.50580533	     85.09234480	      8.83585272	     -2.69748988	     19.47267380	     23.79330114	     84.66441179
